<?xml version="1.0" encoding="utf-8"?>
<!-- Generator: Adobe Illustrator 26.4.1, SVG Export Plug-In . SVG Version: 6.00 Build 0)  -->
<svg version="1.1" id="Calque_1" xmlns="http://www.w3.org/2000/svg" xmlns:xlink="http://www.w3.org/1999/xlink" x="0px" y="0px"
	 viewBox="0 0 192 87" style="enable-background:new 0 0 192 87;" xml:space="preserve">
<style type="text/css">
	.st0{fill:#FFFFFF;}
</style>
<g>
	<g>
		<path class="st0" d="M96.9,24.5c0-5.5,4.5-10.1,10-10.1c4.1,0,7.4,2.5,9,6l-3.6,1c-1-2-2.9-3.4-5.4-3.4c-3.6,0-6.2,2.9-6.2,6.5
			c0,3.6,2.6,6.4,6.2,6.4c2.5,0,4.3-1.3,5.3-3.3l3.7,1c-1.5,3.5-4.8,5.9-8.9,5.9C101.4,34.6,96.9,30.1,96.9,24.5"/>
		<path class="st0" d="M132.9,24.5c0-3.6-2.6-6.6-6.2-6.6c-3.6,0-6.2,3-6.2,6.6c0,3.6,2.6,6.5,6.2,6.5
			C130.2,31,132.9,28.1,132.9,24.5 M116.6,24.5c0-5.5,4.5-10.1,10-10.1c5.5,0,10,4.5,10,10.1c0,5.5-4.5,10-10,10
			C121.1,34.6,116.6,30.1,116.6,24.5"/>
		<path class="st0" d="M143,24.6h4.8c2.1,0,3.4-1.5,3.4-3.3c0-1.8-1.3-3.2-3.4-3.2H143V24.6z M139.2,34.4V14.7h8.9
			c3.9,0,6.8,3.1,6.8,6.7c0,3.7-2.9,6.6-6.8,6.6h-5v6.4H139.2z"/>
		<path class="st0" d="M167.9,25.7c1.6-1.8,2.6-3.3,2.6-5.2c0-4.1-3.3-6-6.4-6c-3.8,0-6.5,2.5-6.8,6.3l0,0.4h3.1l0-0.4
			c0.2-2.1,1.7-3.5,3.7-3.5c1,0,1.9,0.3,2.5,1c0.5,0.6,0.8,1.3,0.8,2.1c0,1.2-0.8,2.2-1.8,3.3l-7.8,8.5v2.2h13l0-3h-8.2L167.9,25.7z
			"/>
		<path class="st0" d="M183.1,21.3c0,2.2-1.8,3.9-4,3.9c-2.2,0-4-1.8-4-3.9c0-2.2,1.8-4,4-4C181.3,17.4,183.1,19.1,183.1,21.3
			 M179.1,14.5c-4,0-7.1,3-7.1,6.9c0,3.8,2.9,6.7,6.8,6.7c2,0,3.8-0.9,4.9-2.4c-0.2,3.1-1.7,6-4.6,6c-2.2,0-3.4-1.6-3.8-2.9
			l-0.1-0.3h-3.2l0.1,0.5c0.8,3.4,3.5,5.6,6.9,5.6c4.7,0,7.7-4,7.7-10.2C186.8,18.4,183.8,14.5,179.1,14.5"/>
		<path class="st0" d="M74.2,60.4c1.7-5.3-0.9-9.6-2.7-11.9c5,2.5,7.3,7.2,8,8.7C78.5,57.6,76.4,58.5,74.2,60.4 M65.7,71.1
			c-2.5,1.4-5,1.7-7.3,1c-2.3-0.8-4.3-2.7-5.4-5.2c-1-2.4-0.9-5.2,0.2-7.1c0.4-0.7,1-1.3,1.7-1.7c-0.4,2.3-0.6,8.1,5.6,10.6
			c1.2,0.5,2.4,0.7,3.5,0.7c2,0,3.7-0.7,5.2-1.8C68.3,69,67.1,70.2,65.7,71.1 M49.2,66.9c-1.4-2.8-1.3-6.4,0.3-9.3
			c1.3-2.4,3.4-4,5.8-4.2c4.4-0.5,6.7,1.6,7.7,2.8c0.8,1.1,1.2,2.3,1.2,3.2c-1.2-1.2-3.9-3.2-7.6-2.8c-1.8,0.2-3.3,1.1-4.2,2.7
			c-1.3,2.2-1.3,5.4-0.2,8.1c1,2.2,2.5,4,4.5,5.1C53.4,71.7,50.8,69.8,49.2,66.9 M41.3,81.3c-0.4-0.5-1-1.3-2-2.2
			c0.1,0,0.2,0.1,0.3,0.1c0.7,0.2,1.3,0.3,1.9,0.3c0.7,0,1.3-0.1,1.8-0.3C42.5,80.2,41.7,80.9,41.3,81.3 M20.2,66.7
			c0.1,0.2,0.2,0.3,0.3,0.5c1.2,1.8,3.1,2.9,5.5,3c1.3,0.1,2.4-0.1,3.4-0.4c0.3,0.9,1.2,3.2,4.4,3.2c0.2,0,0.4,0,0.7,0
			c0,1,0.2,2.1,0.7,3c0.1,0.3,0.3,0.5,0.4,0.7c-1.3-0.6-2.9-1.1-4.7-1.4C26.8,74.7,21.8,72.7,20.2,66.7 M6.7,52.6
			c0.4-0.6,1.1-1.7,1.6-3.2c0.5,0.6,1.3,1.2,2.1,1.7c-0.2,0.8,0.2,1.7,1,2.1c0.3,0.1,0.6,0.2,0.9,0.2c0.6,0,1.1-0.3,1.5-0.7
			c1.4,0.5,3.4,1.1,5.7,1.1c0.9,0,1.7-0.1,2.7-0.3C15.1,56.9,8.5,53.6,6.7,52.6 M15.5,26.9c-1.5,1-2.7,2.5-3.5,4.3
			c-1.2,2.8-1.2,5.9,0.1,8.6c-0.2,0.2-0.3,0.3-0.4,0.6c-0.2,0.5-0.2,1,0,1.5c0.2,0.5,0.5,0.9,1,1.1c0.2,0.1,0.5,0.2,0.8,0.2
			c0.2,0,0.5,0,0.7-0.1c0,0,0.1,0,0.1-0.1c0.9,0.9,1.9,1.6,3.1,2.1c1.4,0.6,2.8,0.9,4.2,0.9c4,0,7.8-2.3,9.5-6.2
			c1-2.3,1.1-4.8,0.5-7.1c0.6,1.1,1,2.3,1.1,3.4c0.2,1.9,0.1,4.2-0.7,6.5c-0.1,0.1-0.1,0.3-0.2,0.4c-2.7,6.1-9.9,8.9-16,6.1
			c-3.3-1.5-5.8-4.4-6.8-7.9C9,41.1,9,41,9,40.9C8.1,36.3,8.6,30.2,15.5,26.9 M23.2,11.1c0.7,1.2,1.9,3.1,3.7,5.1
			c1.9,2.1,3.9,3.8,6,5.1c-0.5,0.7-1.1,1.2-1.9,1.4c-2.7,0.7-6.3-1.4-7.1-1.8C22.5,16.8,22.9,13,23.2,11.1 M35.3,9.2
			C36.1,8.8,37,8.4,38,8.1c1.3,0.6,10.3,4.6,10.2,14.1c-1.7,0.4-3.9,0.7-6.6,0.5c0.8-6.8-5.4-11.3-7.9-12.8
			C34.2,9.7,34.7,9.5,35.3,9.2 M50.6,11.6c2,2.3,3,5,2.9,8c-0.3,0.3-1.3,1.2-3.1,1.9c-0.3,0.1-0.7,0.3-1.1,0.4
			c-0.1-8.4-6.7-12.7-9.7-14.3C43,7,47,7.6,50.6,11.6 M68.3,13.6c0,1.7,0.5,6.6,4.9,10.9c3.3,3.2,6.5,8.5,2.6,15.3
			c-0.2,0.3-0.4,0.6-0.6,0.9c0.1-0.3,0.2-0.6,0.3-1c1.2-3.7,0.3-7.3-2.8-11.4c-0.5-0.6-1.1-1.3-1.7-2c-2.2-2.4-4.6-5.2-4.1-8
			l0.1-0.6l-0.6,0c-0.1,0-3.5-0.2-5.1,3.5c-1.1,2.4-1.2,4.5-0.3,6.7c-0.9,0.8-1.8,1.8-2.8,3.1c-1.5-2-0.9-5.2-0.3-6.7l0.2-0.6
			l-0.7-0.1c-1-0.1-2.6,0.2-3.9,1.6c0.3-1,0.8-2,1.3-3.1C58.6,14.9,66.2,13.8,68.3,13.6 M64.1,60.8l0.4,0.6l0.4-0.6
			c0,0,3.1-4.8-0.1-9.1c-1.8-2.5-4.4-3.7-6.9-3.9c1-0.3,2-0.6,3.1-0.7c0.7,0.1,5.3,0.9,7.4,5c1.6,3.1,1.7,6.9,0.3,9.2
			c-0.9,1.5-2.2,2.2-4.1,2.3c-2.2,0.1-3.7-1-4.7-3c-0.5-1-0.7-2-0.8-2.7C62.2,58.5,64.1,60.8,64.1,60.8 M48.8,55
			c1.1-2,3-3.9,5.4-5.5c2.9-1.5,7.2-0.8,9.8,2.8c1.5,2.1,1.4,4.2,1,5.7c-0.2-0.8-0.6-1.6-1.2-2.4c-1.9-2.5-5-3.7-8.6-3.3
			c-2.8,0.3-5.2,2.1-6.6,4.8c-0.5,1-0.9,2-1.1,3.1C47.5,58.3,47.9,56.5,48.8,55 M62.8,27.7c0.8-0.5,1.4-0.8,1.8-1
			c0.4,1.3,1.5,2.4,2.6,3.5c1.8,1.9,3.9,4.1,3.8,7.6c-0.1,2.3-1,7.6-7.7,7.6c-1.8-0.3-3.5-0.9-5-1.9c2.4,0.7,4.6,0.2,5.9-0.6
			c1.5-0.9,2.5-2.3,2.8-4.1c0.4-2.4-0.5-5.2-2.1-7.1c-1.3-1.4-2.1-2.6-2.7-3.7C62.5,27.9,62.7,27.8,62.8,27.7 M62.2,21.6
			c1-2.2,2.7-2.7,3.6-2.8c-0.2,3.1,2.3,5.8,4.4,8.3c0.6,0.7,1.2,1.3,1.7,2c2.9,3.7,3.8,7,2.7,10.4c-0.6,1.8-1.6,4-4.2,5.3
			c-0.7,0.3-1.5,0.5-2.2,0.7c0.8-0.5,1.5-1.1,2.1-1.8c1.4-1.8,1.8-4.1,1.9-5.7c0.2-4-2.2-6.4-4.1-8.4c-1.2-1.3-2.3-2.4-2.5-3.6
			l-0.1-0.5l-0.5,0.1c-0.1,0-1.4,0.3-3.1,1.6C61.1,25.1,61.4,23.4,62.2,21.6 M58.1,33.1c0.1-0.2,0.2-0.3,0.3-0.5
			c1.5,1.3,2.5,2.3,2.7,3.5c0.3,1.4-0.4,2.2-1,2.6c-0.5,0.3-1.3,0.4-2-0.2C56.5,37.1,57.1,34.8,58.1,33.1 M57.6,31.8
			c-0.1,0.2-0.3,0.5-0.4,0.7c-1.2,2-1.8,4.9,0.2,6.6c0.9,0.8,2.1,1,3.2,0.4c1.2-0.7,1.9-2.2,1.6-3.7c-0.3-1.5-1.5-2.6-3.2-4.1
			c0.9-1.3,1.7-2.2,2.5-2.9c0.6,1.2,1.5,2.4,2.8,3.7c1.4,1.6,2.2,4.1,1.9,6.2c-0.2,1-0.7,2.5-2.3,3.4c-1.2,0.7-4.9,1.7-8.1-1.2
			c-2-2.8-3.4-6.7-3-11.3c0.7-4,2.9-4.8,4-5C56.1,26.6,55.8,29.8,57.6,31.8 M33.9,21.8c1.8,0.9,3.7,1.6,5.6,1.8
			c0.3,0,0.6,0.1,0.9,0.1c-0.4,1.9-1.4,3.4-2.8,4.3c-2.7,1.7-6.4,0.9-7,0.8c-1.2-0.8-2.4-1.8-3.5-3c-1-1.1-1.8-2.2-2.5-3.4
			c1.3,0.6,3.3,1.4,5.2,1.4c0.5,0,1-0.1,1.4-0.2C32.4,23.3,33.3,22.7,33.9,21.8 M33.6,16.9c0.4,1.1,0.3,2.3-0.1,3.4
			c-4.8-2.9-8-7.6-9.3-9.8c0.9,0.2,2.2,0.5,3.7,0.5l0,0C27.9,11.1,32.5,13.5,33.6,16.9 M40.6,22.6c-0.3,0-0.6-0.1-1-0.1
			c-1.9-0.3-3.6-0.9-5.2-1.7c0.6-1.4,0.7-2.8,0.2-4.2c-0.9-2.7-3.4-4.7-5-5.7c0.9-0.1,1.8-0.3,2.8-0.6C33.7,11,41.5,15.5,40.6,22.6
			 M45.3,29.4c-2.6,2.2-6.3,2.2-7.4,2.1c-1.6-0.2-3.3-0.7-4.9-1.5c0.1,0,0.2,0,0.3,0c1.5,0,3.3-0.3,4.8-1.3c1.7-1.1,2.8-2.8,3.3-5.1
			c0.6,0,1.3,0.1,1.9,0.1c1.9,0,3.5-0.2,4.9-0.5C47.9,26,47,28,45.3,29.4 M53.4,21c0,0.3-0.1,0.6-0.2,0.9c-0.9,3.9-3.5,7.3-6.6,8.6
			c-0.6,0.3-1.3,0.5-2,0.7c0.5-0.3,1-0.6,1.4-1c1.9-1.7,3-4.1,3.2-7.2C51.2,22.4,52.5,21.6,53.4,21 M15.2,40.4
			c-0.2-0.5-0.5-0.9-1-1.1c-0.4-0.2-0.8-0.2-1.2-0.1c-1.1-2.4-1.1-5.2,0-7.7c2.1-4.7,7.7-6.9,12.4-4.7c4.7,2.1,6.9,7.7,4.7,12.4
			C28,44,22.4,46.1,17.7,44c-1-0.4-1.9-1.1-2.7-1.8c0.1-0.1,0.1-0.2,0.2-0.3C15.4,41.4,15.4,40.9,15.2,40.4 M12.6,40.8
			c0.1-0.2,0.3-0.4,0.5-0.5c0.1,0,0.2-0.1,0.3-0.1c0.1,0,0.2,0,0.4,0.1c0.2,0.1,0.4,0.3,0.5,0.5s0.1,0.5,0,0.7h0
			c-0.1,0.2-0.3,0.4-0.5,0.5c-0.2,0.1-0.5,0.1-0.7,0c-0.2-0.1-0.4-0.3-0.5-0.5C12.5,41.2,12.5,41,12.6,40.8 M34.3,50.4
			c-2-0.4-4.2-0.2-6.3,0.5c2.6-2.4,4.2-5.2,5-7.9c0-0.1,0.1-0.2,0.1-0.3l0,0c0.7-2.4,0.9-4.7,0.6-6.7c-0.2-1.9-1.1-3.8-2.3-5.6
			c2.1,1.2,4.1,1.8,6.2,2.2l0,0c0,0,0.1,0,0.3,0c0.9,0.1,1.7,0.2,2.6,0.2c2.5,0,4.8-0.5,6.6-1.3c1.9-0.8,3.6-2.3,4.9-4.1
			c-0.1,0.7-0.2,1.4-0.3,2.1c0,0,0,0.1,0,0.1l0,0c-0.4,5.5,1.6,10.3,4.2,13.2c1.3,1.5,3.2,2.6,5.3,3.3c-2.9,0.4-5.4,1.3-7.4,2.6
			c-0.2,0.1-0.5,0.3-0.7,0.4l0,0c-2.3,1.6-4,3.5-5.1,5.4c-1,1.7-1.5,3.8-1.5,6C43.7,54.5,38.5,51.3,34.3,50.4 M13,51.9
			c-0.2,0.4-0.7,0.6-1.2,0.4c-0.4-0.2-0.6-0.7-0.4-1.2c0.2-0.3,0.5-0.5,0.8-0.5c0.1,0,0.3,0,0.4,0.1c0.2,0.1,0.4,0.3,0.4,0.5
			C13.2,51.5,13.1,51.7,13,51.9 M14.1,51c-0.2-0.5-0.5-0.9-0.9-1.1c-0.8-0.4-1.6-0.2-2.2,0.3c-1.5-1-2.1-1.8-2.2-2
			c0.3-1.1,0.5-2.3,0.5-3.7c1.4,2.4,3.5,4.4,6.1,5.5c1.7,0.8,3.6,1.1,5.3,1.1c2.9,0,5.8-1,8.1-2.8c-0.7,0.8-1.4,1.6-2.3,2.3l0,0
			c-4.8,3.1-9.7,2.1-12.4,1.1C14.2,51.5,14.2,51.2,14.1,51 M34.5,71.9c-1.5,0.2-2.7-0.2-3.4-1.1c-0.5-0.6-0.6-1.2-0.7-1.4
			c1.4-0.8,2.4-2.1,3-3.8c1.2-3.5,0.6-6.7-1.5-8.5c-1.7-1.5-4.1-1.8-6.2-0.8c-2.3,1.1-3.6,3.1-3.5,5.5c0,2,1.1,3.7,2.5,4.3
			c2,0.9,3.4,0.4,4.3-0.1c1.2-0.8,1.9-2.2,2-3.2c0-0.9-0.3-1.8-0.8-2.4c-0.5-0.5-1.2-0.8-1.9-0.8c-1,0-1.9,0.6-2.3,1.6
			c-0.3,0.8-0.2,1.6,0.3,2c0.2,0.2,0.5,0.2,0.7,0c0.2-0.2,0.2-0.5,0-0.7c-0.2-0.2-0.2-0.5,0-0.9c0.2-0.4,0.6-0.9,1.3-0.9
			c0.5,0,0.9,0.2,1.2,0.5c0.4,0.4,0.6,1,0.5,1.6c0,0.6-0.5,1.8-1.5,2.4c-0.9,0.6-2,0.6-3.3,0c-1.1-0.5-1.9-1.8-1.9-3.4
			c0-0.9,0.2-3.2,2.9-4.5c1.7-0.8,3.7-0.6,5.1,0.7c0.9,0.7,2.7,3,1.2,7.4c-0.9,2.8-3,4.1-6.3,4c-2-0.1-3.6-0.9-4.7-2.5
			c-1.6-2.3-1.6-5.6-0.9-7.6c0.2-0.4,0.4-0.9,0.6-1.4c0.1-0.1,0.1-0.2,0.2-0.3c0-0.1,0.1-0.1,0.1-0.2c0.1-0.1,0.2-0.2,0.2-0.3
			c0.9-1.4,2.3-2.8,4.1-3.5c2.3-0.9,4.8-0.6,7.6,0.8c6.3,3.4,2.6,12.2,2.5,12.6C35.3,68.1,34.7,70,34.5,71.9 M45.4,76.1
			c-1.2,2-3,2.8-5.6,2.1c-1.8-0.5-3.1-1.4-3.8-2.7c-1.3-2.6-0.1-6.3,0.7-8.3c0.1-0.2,1.5-3.7,1.3-7.3c0.7,0.1,2.4,0.7,3.7,2.2
			c1.1,1.4,1.6,3.4,1.4,5.9c-1-0.1-2,0-2.8,0.5c-1.3,0.8-2.1,2-2.2,3.4c-0.1,1.3,0.5,2.5,1.5,3.2c1,0.7,2,0.8,2.9,0.3
			c0.8-0.4,1.4-1.4,1.4-2.2c0-0.6-0.4-1.2-0.9-1.4c-0.3-0.1-0.6,0-0.7,0.2c-0.1,0.3,0,0.6,0.2,0.7c0.2,0.1,0.3,0.3,0.3,0.5
			c0,0.4-0.3,1-0.8,1.3c-0.4,0.2-1,0.3-1.8-0.2c-0.7-0.5-1.1-1.3-1-2.3c0-0.6,0.3-1.8,1.7-2.6c1.3-0.7,3.1-0.5,4.3,0.7
			c1.3,1.3,1.5,3.2,0.6,5.2C45.6,75.6,45.5,75.8,45.4,76.1 M47,71.4c-0.3-1-0.9-1.7-1.2-2c-0.5-0.5-1.1-0.8-1.7-1.1
			c0.3-2.8-0.2-5.2-1.6-6.9c-1.7-2.2-4.2-2.6-4.6-2.6c-0.4-2.2-1.5-4.2-4.1-5.6c-1.9-1-3.8-1.5-5.6-1.5c1.3-0.4,2.5-0.7,3.8-0.7
			c0.7,0,1.3,0.1,2,0.2c5.2,1.1,11.7,5.8,13.1,15.1C47.4,68.3,47.3,69.9,47,71.4 M72.8,61.4c-2,4.4-6.2,8.7-11.9,6.4
			c-2.9-1.2-4.6-3.3-5-6.2c-0.2-1.7,0-3.3,0.2-3.9c0.2,0,0.4-0.1,0.6-0.1c0.5-0.1,1-0.1,1.4,0c0.2,2.7,1.8,6.9,6.3,6.9
			c0.1,0,0.2,0,0.2,0c2.2-0.1,3.9-1,4.9-2.8c1.6-2.6,1.4-6.8-0.3-10.2c-1.3-2.5-3.4-3.9-5.2-4.7c1,0,2.1,0.1,3.1,0.3
			c0.7,0.1,1.3,0.3,1.9,0.5C70,48.4,76.1,53.9,72.8,61.4 M80.6,57.5c0-0.1-3.2-9-12.2-11.1c3.6-0.8,6.5-2.9,8.3-6.1
			c4.2-7.3,0.8-13-2.8-16.5c-5-4.9-4.6-10.6-4.6-10.7l0-0.6l-0.6,0c-0.1,0-9.5,0.2-14.4,8.2c0.4-3.6-0.7-7.1-3.1-9.8
			c-4.4-5-10.2-5.9-16.6-2.6c-6.2,3.2-11.5,1-11.6,0.9L22.7,9l-0.2,0.5c0,0.1-2.9,9.2,3.3,16.4c-3.5-1.6-7.2-1.6-10.7,0
			C7.5,29.5,7,36.2,8,41.1c1.3,6.8-2.3,11.3-2.4,11.3l-0.4,0.4l0.5,0.3c0.1,0,4.3,2.9,10,2.9c2,0,4.1-0.3,6.3-1.3
			c-0.1,0.1-0.2,0.2-0.3,0.3c-0.1,0.1-0.2,0.2-0.2,0.3c0,0-0.1,0.1-0.1,0.1c-0.5,0.6-0.9,1.2-1.2,1.8c0,0,0,0.1-0.1,0.1c0,0,0,0,0,0
			c-1.1,2.2-1.6,4.6-1.3,7.2c0.9,8.4,7,11,12,11.7c6.9,1,9.9,5.9,9.9,5.9l0.3,0.5l0.5-0.3c0,0,2.7-2.1,4.8-5.7
			c0.1-0.1,0.2-0.3,0.3-0.4c0.1-0.2,0.2-0.4,0.3-0.6c1.1-2.3,1.8-5,1.5-8.2c0,0,0,0.1,0,0.1l0,0c1.8,3.2,4.8,5.3,8.4,6
			c1.1,0.2,2.2,0.3,3.2,0.3c2.7,0,4.9-0.8,6.7-2c0,0,0,0,0,0l0,0c2.3-1.6,3.9-3.9,5-6.1c3.1-6.2,8.6-7.6,8.7-7.6l0.6-0.1L80.6,57.5z
			"/>
		<path class="st0" d="M16.9,32.6c0.9-2.1,2.9-3.3,5.1-3.3c0.8,0,1.5,0.2,2.2,0.5c2.8,1.2,4,4.5,2.8,7.3c-1.2,2.8-4.5,4-7.3,2.8
			c-1.3-0.6-2.4-1.7-2.9-3.1C16.2,35.4,16.3,33.9,16.9,32.6 M19.2,40.8c0.9,0.4,1.8,0.6,2.7,0.6c2.5,0,4.9-1.5,6-3.9v0
			c1.5-3.3,0-7.2-3.3-8.7c-3.3-1.5-7.2,0-8.7,3.3c-0.7,1.6-0.8,3.4-0.1,5C16.4,38.8,17.6,40.1,19.2,40.8"/>
		<path class="st0" d="M20.9,32.8c0.2-0.5,0.6-0.8,1.1-1c0.2-0.1,0.5-0.1,0.7-0.1c0.3,0,0.5,0.1,0.8,0.2c0.5,0.2,0.8,0.6,1,1.1
			c0.2,0.5,0.2,1,0,1.5c-0.4,1-1.6,1.4-2.5,1C20.9,34.8,20.5,33.7,20.9,32.8 M21.4,36.2c0.4,0.2,0.8,0.3,1.2,0.3
			c1.1,0,2.2-0.6,2.7-1.7c0.3-0.7,0.3-1.5,0.1-2.2c-0.3-0.7-0.8-1.3-1.5-1.6c-0.7-0.3-1.5-0.3-2.2-0.1c-0.7,0.3-1.3,0.8-1.6,1.5
			C19.3,33.8,19.9,35.6,21.4,36.2"/>
		<path class="st0" d="M99.7,53.6h3.9c2.2,0,3.3-1,3.3-2.7c0-1.8-1.1-2.6-3.4-2.6h-3.7V53.6z M99.7,47.2h3.6c1.8,0,3-0.6,3-2.5
			c0-1.6-1.2-2.4-3-2.4h-3.7V47.2z M98.5,41.2h4.6c2.4,0,4.6,0.7,4.6,3.4c0,1.4-0.7,2.5-1.8,3c1.6,0.5,2.3,1.6,2.3,3.2
			c0,2.8-2.1,3.9-4.7,3.9h-5V41.2z"/>
		<path class="st0" d="M113.5,53.9c1.9,0,3.5-1,3.5-3.8v-0.5c-4.1,0.4-5.8,1-5.8,2.6C111.2,53.3,112.2,53.9,113.5,53.9 M117,53.2
			c-0.7,1.1-1.9,1.8-3.8,1.8c-1.9,0-3.3-1.1-3.3-2.7c0-2.3,2.2-3.1,7.1-3.6v-0.4c0-2.3-1.3-2.8-2.8-2.8c-1.7,0-2.7,1-2.8,2.3h-1.2
			c0.3-2,1.9-3.3,4.1-3.3c2.3,0,3.9,1,3.9,4c0,1.4,0,2.3,0,3.1c0,1.1,0.1,2.1,0.1,3.2h-1.2L117,53.2z"/>
	</g>
	<polygon class="st0" points="122,41.2 122,49.7 126.6,44.7 128,44.7 124.3,48.7 128.4,54.7 127,54.7 123.6,49.5 122,51.2 122,54.7 
		120.9,54.7 120.9,41.2 	"/>
	<g>
		<path class="st0" d="M136.2,53.1c-0.5,1-1.5,1.9-3.2,1.9c-2.3,0-3.3-1.4-3.3-3.9v-6.4h1.2v6.1c0,1.9,0.4,3.2,2.4,3.2
			c1.6,0,2.9-1.5,2.9-3.6v-5.6h1.2v10h-1.2V53.1z"/>
	</g>
	<path class="st0" d="M99.9,66.9h5.6l-2.8-7.4L99.9,66.9z M102,57.9h1.4l5.1,13.5h-1.4l-1.3-3.4h-6.4l-1.3,3.4h-1.3L102,57.9z"/>
	<polygon class="st0" points="109.8,70.4 116,62.4 110.2,62.4 110.2,61.4 117.4,61.4 117.4,62.4 111.2,70.4 117.5,70.4 117.5,71.4 
		109.8,71.4 	"/>
	<g>
		<path class="st0" d="M119.9,65.7h6.7c0-1.7-1.2-3.4-3.2-3.4C121.5,62.3,120.2,63.4,119.9,65.7 M118.7,66.4c0-3.2,2-5.2,4.7-5.2
			c2.8,0,4.6,2.4,4.5,5.5h-8c0,2.4,1.6,3.9,3.6,3.9c1.6,0,2.7-0.8,3.1-2.2h1.2c-0.5,2.1-2.1,3.2-4.3,3.2
			C120.5,71.6,118.7,69.5,118.7,66.4"/>
		<path class="st0" d="M134.6,62.6c-0.2,0-0.4,0-0.5,0c-2.1,0-2.7,1.5-2.7,3.6v5.3h-1.1v-10h1.1v1.8c0.4-1.2,1.8-1.9,3-1.9
			c0.1,0,0.2,0,0.3,0V62.6z"/>
		<path class="st0" d="M140.9,70.6c1.9,0,3.2-1.5,3.2-4.2c0-2.7-1.3-4.2-3.2-4.2c-1.5,0-3.2,1.2-3.2,4.2
			C137.7,69.4,139.4,70.6,140.9,70.6 M141.2,71.7c-1.5,0-2.7-0.7-3.4-1.9v1.6h-1.2V57.9h1.2v5.2c0.7-1.2,1.9-1.9,3.4-1.9
			c2.3,0,4.2,1.9,4.2,5.2C145.4,69.8,143.5,71.7,141.2,71.7"/>
		<path class="st0" d="M150.4,70.6c1.9,0,3.5-1,3.5-3.8v-0.5c-4.1,0.4-5.8,1-5.8,2.6C148.2,70,149.1,70.6,150.4,70.6 M154,69.9
			c-0.7,1.1-1.9,1.8-3.8,1.8c-1.9,0-3.3-1.1-3.3-2.7c0-2.3,2.2-3.1,7.1-3.6V65c0-2.3-1.3-2.8-2.8-2.8c-1.7,0-2.7,1-2.8,2.3h-1.2
			c0.3-2,1.9-3.3,4.1-3.3c2.3,0,3.9,1,3.9,4c0,1.4,0,2.3,0,3.1c0,1.1,0.1,2.1,0.1,3.2H154L154,69.9z"/>
	</g>
	<path class="st0" d="M158.2,71.4h1.2v-10h-1.2V71.4z M158.2,59.7h1.2v-1.8h-1.2V59.7z"/>
	<g>
		<path class="st0" d="M163.9,59.7h-1.2v-1.8h1.2V59.7z M162.8,61.4h1.2V72c0,2-0.3,2.6-2.1,2.6h-0.6v-1.1h0.2
			c1.2,0,1.3-0.3,1.3-1.6V61.4z"/>
		<path class="st0" d="M169.8,70.6c1.9,0,3.5-1,3.5-3.8v-0.5c-4.1,0.4-5.8,1-5.8,2.6C167.5,70,168.5,70.6,169.8,70.6 M173.3,69.9
			c-0.7,1.1-1.9,1.8-3.8,1.8c-1.9,0-3.3-1.1-3.3-2.7c0-2.3,2.2-3.1,7.1-3.6V65c0-2.3-1.3-2.8-2.8-2.8c-1.7,0-2.7,1-2.8,2.3h-1.2
			c0.3-2,1.9-3.3,4.1-3.3c2.3,0,3.9,1,3.9,4c0,1.4,0,2.3,0,3.1c0,1.1,0.1,2.1,0.1,3.2h-1.2L173.3,69.9z"/>
		<path class="st0" d="M178.3,63.1c0.5-1,1.5-1.9,3.3-1.9c2.4,0,3.4,1.4,3.4,3.9v6.3h-1.2v-6c0-1.9-0.5-3.2-2.5-3.2
			c-1.7,0-3,1.5-3,3.6v5.6h-1.2v-10h1.2V63.1z"/>
	</g>
</g>
</svg>
