<svg id="Groupe_394" data-name="Groupe 394" xmlns="http://www.w3.org/2000/svg" width="172.817" height="67.66" viewBox="0 0 172.817 67.66">
  <path id="Tracé_104" data-name="Tracé 104" d="M78.553,61.5v53.806H58.594a20.213,20.213,0,0,1,0-40.426l14.725.009V61.4H58.594a33.7,33.7,0,0,0,0,67.405H91.873V74.981H111.1a20.12,20.12,0,0,1,0,40.241H96.953v13.583H111.1a33.692,33.692,0,0,0,33.652-33.628h.008c0-.089-.014-.177-.014-.266v-.032c.328-12.129,9.411-19.912,20.392-19.912a19.786,19.786,0,0,1,11.881,3.97l9.6-9.6A33.336,33.336,0,0,0,138.177,75.2,33.623,33.623,0,0,0,111.1,61.5Z" transform="translate(-24.941 -61.4)" fill="#252f38"/>
  <path id="Tracé_105" data-name="Tracé 105" d="M193.107,91.626H166.8v9.889h11.691a19.858,19.858,0,0,1-34.973,4.209,39.12,39.12,0,0,1-6.8,12.691,33.252,33.252,0,0,0,46.579-.165v9.479h10v-36.1Z" transform="translate(-20.471 -60.191)" fill="#5b790f"/>
</svg>
